HIERARCHY
ROOT Hips
{
  OFFSET 13.6774 106.653 -34.4427
  CHANNELS 6 Xposition Yposition Zposition Zrotation Xrotation Yrotation
  JOINT ToSpine
  {
    OFFSET -2.69724 7.43032 -0.144315
    CHANNELS 3 Zrotation Xrotation Yrotation
    JOINT Spine
    {
      OFFSET -0.0310711 10.7595 1.96963
      CHANNELS 3 Zrotation Xrotation Yrotation
      JOINT Spine1
      {
        OFFSET 19.9056 3.91189 0.764692
        CHANNELS 3 Zrotation Xrotation Yrotation
        JOINT Neck
        {
          OFFSET 25.9749 7.03908 -0.130764
          CHANNELS 3 Zrotation Xrotation Yrotation
          JOINT Head
          {
            OFFSET 9.52751 0.295786 -0.907742
            CHANNELS 3 Zrotation Xrotation Yrotation
            End Site
            {
              OFFSET 16.4037 0.713936 2.7358
            }
          }
        }
        JOINT LeftShoulder
        {
          OFFSET 17.7449 4.33886 11.7777
          CHANNELS 3 Zrotation Xrotation Yrotation
          JOINT LeftArm
          {
            OFFSET 0.911315 1.27913 9.80584
            CHANNELS 3 Zrotation Xrotation Yrotation
            JOINT LeftForeArm
            {
              OFFSET 28.6126 1.18197 -3.53199
              CHANNELS 3 Zrotation Xrotation Yrotation
              JOINT LeftHand
              {
                OFFSET 27.5088 0.0218783 0.327423
                CHANNELS 3 Zrotation Xrotation Yrotation
                End Site
                {
                  OFFSET 18.6038 -0.000155887 0.382096
                }
              }
            }
          }
        }
        JOINT RightShoulder
        {
          OFFSET 17.1009 2.89543 -12.2328
          CHANNELS 3 Zrotation Xrotation Yrotation
          JOINT RightArm
          {
            OFFSET 1.4228 0.178766 -10.211
            CHANNELS 3 Zrotation Xrotation Yrotation
            JOINT RightForeArm
            {
              OFFSET 28.733 1.87905 2.64907
              CHANNELS 3 Zrotation Xrotation Yrotation
              JOINT RightHand
              {
                OFFSET 27.4588 0.290562 -0.101845
                CHANNELS 3 Zrotation Xrotation Yrotation
                End Site
                {
                  OFFSET 17.8396 -0.255518 -0.000602873
                }
              }
            }
          }
        }
      }
    }
  }
  JOINT LeftUpLeg
  {
    OFFSET -5.61296 -2.22332 -10.2353
    CHANNELS 3 Zrotation Xrotation Yrotation
    JOINT LeftLeg
    {
      OFFSET 2.56703 -44.7417 -7.93097
      CHANNELS 3 Zrotation Xrotation Yrotation
      JOINT LeftFoot
      {
        OFFSET 3.16933 -46.5642 -3.96578
        CHANNELS 3 Zrotation Xrotation Yrotation
        JOINT LeftToeBase
        {
          OFFSET 0.346054 -6.02161 12.8035
          CHANNELS 3 Zrotation Xrotation Yrotation
          End Site
          {
            OFFSET 0.134235 -1.35082 5.13018
          }
        }
      }
    }
  }
  JOINT RightUpLeg
  {
    OFFSET -5.7928 -1.72406 10.6446
    CHANNELS 3 Zrotation Xrotation Yrotation
    JOINT RightLeg
    {
      OFFSET -2.57161 -44.7178 -7.85259
      CHANNELS 3 Zrotation Xrotation Yrotation
      JOINT RightFoot
      {
        OFFSET -3.10148 -46.5936 -4.03391
        CHANNELS 3 Zrotation Xrotation Yrotation
        JOINT RightToeBase
        {
          OFFSET -0.0828122 -6.13587 12.8035
          CHANNELS 3 Zrotation Xrotation Yrotation
          End Site
          {
            OFFSET -0.131328 -1.35082 5.13018
          }
        }
      }
    }
  }
}
MOTION
Frames: 17
Frame Time: 0.03333333333333333
0.0000 93.1000 0.0000 50.9219 -40.0901 -22.8187 -70.9884 -0.2850 88.0097 126.6626 66.7484 -42.6522 2.5389 20.8917 2.6546 -115.3845 30.2432 162.1366 152.8224 65.0116 -99.2856 0.3208 -8.7226 -4.7816 -71.0557 45.5610 -158.9178 34.0829 -3.9566 -94.2380 -0.1398 -0.1746 -0.2063 -3.2423 7.9940 48.5489 -129.5857 -6.2844 82.8978 11.4798 -4.3347 72.0893 0.0317 0.0819 -0.0939 -3.4043 19.3911 80.0018 -3.7387 48.7352 -6.8554 -6.7124 8.0133 1.5808 4.4420 -11.1839 3.9049 -22.3133 -5.7375 97.2292 4.7546 65.1250 -5.7829 -6.6475 -21.0810 1.3081 2.1218 -17.9824 -19.7818 
0.0000 93.1000 0.0000 52.4173 -41.3284 -22.9682 -70.9871 -0.0259 88.0091 120.9233 69.4089 -36.6827 1.9447 22.0899 2.6678 -114.3111 31.3438 161.9015 150.5578 65.9570 -100.3564 0.8240 -8.3977 -5.9277 -68.3620 44.9183 -156.5640 31.5730 -4.9491 -95.3339 0.1875 0.0103 -0.1779 -2.9885 8.0210 47.5568 -126.0085 -5.0494 82.0641 10.8690 -6.7912 60.1112 -0.1523 -0.0151 -0.1578 -10.4835 19.3420 79.1611 -3.3785 38.4101 -10.6787 -8.5046 13.2411 1.9431 4.0395 -9.6136 1.1751 -30.3385 -9.4910 94.7653 2.9120 57.3274 -1.5706 -6.5721 -17.6605 1.3395 2.5020 -20.1925 -18.3505 
0.0000 93.1000 0.0000 55.1716 -43.4031 -21.8496 -70.9843 0.4254 88.0080 118.9845 71.4004 -34.3819 0.9954 22.9671 3.2775 -115.2317 32.5632 164.2761 149.7137 67.1099 -102.4741 0.9099 -7.8910 -7.6248 -67.1530 44.3760 -151.6751 30.0424 -5.5687 -97.3652 0.2159 0.4492 -0.2318 -2.9712 7.6238 46.5979 -123.2628 -4.2999 81.7952 9.1775 -7.7584 50.9531 -0.4020 -0.3889 -0.5459 -18.5188 18.9651 81.1818 -3.0831 36.0510 -12.1701 -7.7297 10.1483 1.4786 2.9993 -7.3048 0.1444 -36.8190 -12.8720 93.3961 2.4354 52.6180 1.1520 -6.5975 -12.2233 1.3368 2.6539 -20.8427 -19.7322 
0.0000 93.1000 0.0000 58.1027 -45.4565 -21.4448 -70.9818 0.9731 88.0050 122.7185 72.6496 -37.6417 -0.2714 23.7110 3.9911 -120.3533 33.9344 168.1395 145.9080 68.5494 -103.1841 0.9288 -7.5344 -9.8734 -68.0863 44.5717 -146.9296 29.2748 -5.8469 -99.6944 0.1604 0.9817 -0.3361 -2.9230 7.3680 45.8639 -121.5356 -3.1888 80.9086 7.3415 -7.6375 44.0872 -0.7886 -0.8702 -0.9374 -24.0936 18.2033 84.8228 -3.9391 38.9564 -13.3725 -5.7244 4.5700 0.5535 2.9271 -7.3365 1.9414 -41.1796 -15.9307 92.9006 1.6257 49.8993 -1.0269 -7.1944 -7.3566 1.3460 1.8188 -17.3146 -17.7218 
0.0000 93.1000 0.0000 59.2197 -46.3695 -20.9443 -70.9872 0.3194 88.0054 118.2590 73.3578 -33.9568 -1.3337 24.0978 3.9344 -121.6231 34.8558 166.2822 148.7442 69.9282 -109.0351 1.2258 -7.1896 -11.5570 -71.0287 43.9590 -142.7629 27.1496 -5.8212 -101.0408 0.0704 0.3282 -0.1202 -2.9681 7.1856 46.2788 -119.9567 -0.7669 81.1165 5.4848 -6.6784 39.6421 -0.3184 -0.2330 -0.3429 -27.5566 17.1468 88.6988 -4.1285 40.8449 -13.8484 -3.9440 2.6697 0.2831 3.3157 -9.8454 1.8799 -42.2682 -17.4554 91.6932 2.1069 49.9531 -3.9542 -7.7752 -5.9875 1.0571 1.5242 -15.2360 -14.8035 
0.0000 93.1000 0.0000 59.7326 -47.1696 -20.8930 -70.9877 0.3893 88.0069 116.8223 74.1654 -32.5422 -2.6277 24.8677 4.1528 -124.3045 36.0855 167.2721 145.7600 71.2023 -109.9172 0.7870 -6.8350 -13.1651 -74.7971 43.0310 -139.8690 26.9780 -6.5115 -102.2442 -0.1065 0.4846 -0.1574 -3.2260 7.5036 45.9469 -120.0491 -0.2283 81.0006 3.9146 -6.1911 36.9246 -0.3760 -0.3264 -0.4384 -31.8205 16.0313 91.1333 -3.9904 39.4320 -14.3655 -3.2993 0.1696 0.2495 2.9149 -9.1281 4.5316 -43.5456 -18.1496 90.2230 1.7258 47.8982 -0.2452 -7.5078 -4.5190 0.9502 1.8245 -18.6027 -17.0685 
0.0000 93.1000 0.0000 60.2234 -48.1198 -20.8333 -70.9889 0.4182 88.0070 111.0148 74.8303 -26.8897 -2.5117 25.0069 4.0863 -127.3462 36.7763 167.5010 145.6463 72.2516 -112.8502 0.9984 -6.1173 -14.6721 -78.9437 41.6754 -136.6962 24.1733 -6.9423 -104.2159 -0.0675 0.4738 -0.1120 -3.0826 7.5668 45.4864 -120.7370 -0.5802 80.0844 2.6345 -5.1280 35.7882 -0.3162 -0.3385 -0.3566 -35.0951 15.8084 92.9755 -4.3820 38.1721 -15.0497 -3.1740 -0.1843 0.0912 2.9262 -10.2248 6.0423 -44.2128 -18.0989 87.0023 2.1827 42.3392 3.0803 -5.5095 -3.0821 0.7244 2.0963 -17.7711 -15.5452 
0.0000 93.1000 0.0000 60.5752 -47.9526 -20.9400 -70.9891 0.3448 88.0074 106.8892 75.0291 -22.3778 -2.4326 25.0055 4.2006 -130.4019 37.9948 166.0737 147.0083 73.8017 -117.4609 1.1168 -5.9716 -15.7059 -81.3668 41.3207 -135.8331 19.9882 -6.5996 -105.7712 -0.0234 0.3932 -0.0529 -2.9863 7.4633 44.7829 -122.5412 -1.9169 77.9193 3.2555 -4.8629 37.1546 -0.2167 -0.3120 -0.2404 -37.2801 15.0596 94.9122 -4.1414 36.9954 -15.9224 -2.8521 -1.0534 -0.1228 2.9677 -10.1188 6.8122 -46.0010 -17.1217 83.5971 0.9098 34.2034 5.8215 -2.3043 0.7651 0.2101 1.7290 -16.1963 -12.1882 
0.0000 93.1000 0.0000 60.6180 -47.4223 -19.7817 -70.9889 0.5885 88.0051 102.8857 75.1935 -19.6621 -2.5862 24.8709 4.4926 -131.2445 38.0980 165.0735 149.7612 74.9430 -122.3895 1.1620 -6.2898 -16.4214 -83.0509 40.4850 -135.8482 18.7719 -6.6000 -107.2258 -0.1046 0.5408 -0.1498 -2.8224 7.0173 44.6733 -123.1785 -3.0165 76.1207 2.7947 -4.8006 38.7695 -0.2469 -0.5262 -0.3473 -40.1149 13.8872 96.9735 -4.3329 35.3363 -16.1957 -2.5949 -1.4027 -0.3328 2.9922 -9.5739 7.9064 -47.8239 -16.1926 79.7108 -0.1324 28.1647 9.8889 -0.5236 3.8315 -0.2609 1.3514 -13.6435 -10.5266 
0.0000 93.1000 0.0000 62.5516 -47.0652 -19.6263 -70.9909 0.5588 88.0051 97.0343 75.0773 -15.3154 -2.2872 23.9741 4.5520 -132.4497 38.1192 165.1145 149.6543 75.6026 -123.4486 1.5165 -6.4349 -17.3193 -85.0870 39.8631 -135.7825 18.1018 -6.6739 -108.1603 -0.0128 0.4400 -0.1897 -2.6955 6.9401 45.6037 -123.9297 -2.2936 75.0802 3.1445 -5.1558 41.1454 -0.2442 -0.4601 -0.3028 -42.2078 12.0283 99.0004 -4.2891 34.0836 -16.2844 -2.8092 -1.9220 -0.4939 2.6511 -9.2729 8.7621 -47.9858 -15.9814 78.2464 1.1940 24.0784 9.8802 0.5120 6.7640 -0.4045 1.0045 -11.7586 -7.6564 
0.0000 93.1000 0.0000 62.7197 -46.0339 -18.8149 -70.9934 0.5538 88.0028 92.8285 74.9585 -12.0340 -2.2991 23.5699 5.1130 -133.2620 38.1695 165.1504 151.5294 75.9763 -126.1636 1.5344 -7.2128 -18.3316 -86.2064 38.9409 -135.8011 16.8686 -6.6924 -108.9358 0.0196 0.4454 -0.2543 -2.6351 6.5741 45.9800 -125.1988 -2.7849 73.9507 4.0136 -5.0054 44.8746 -0.4372 -0.4804 -0.3698 -43.8618 10.2042 99.6740 -3.0790 33.2208 -15.7278 -2.0397 -2.3135 -0.7564 1.9923 -8.5584 8.2661 -48.9296 -15.8642 78.0351 0.9423 20.8568 3.6873 1.3492 7.8699 -0.6735 0.2722 -7.3672 -5.4046 
0.0000 93.1000 0.0000 63.9765 -44.9199 -18.7370 -70.9938 0.8280 87.9997 89.9656 74.0724 -10.0793 -2.1650 22.8937 5.0757 -133.2735 38.3467 164.0280 153.6026 76.5081 -127.9792 1.5150 -7.9896 -19.3618 -87.2328 37.9844 -136.7069 16.0836 -6.3007 -109.0681 0.0615 0.6164 -0.3627 -2.5445 6.5500 46.1630 -126.0553 -3.4977 72.0340 4.4425 -5.1688 48.6976 -0.5073 -0.6593 -0.5817 -44.9403 9.0840 100.0702 -3.1085 33.3149 -15.2352 -1.2477 -3.3702 -1.1436 2.1401 -8.7511 7.5005 -50.1343 -16.0202 77.7646 0.9780 18.8775 -1.2022 0.8317 9.1096 -0.6752 -0.1894 -6.1973 -2.3511 
0.0000 93.1000 0.0000 65.1510 -44.2013 -17.7331 -70.9950 0.4410 88.0022 86.6491 73.9340 -7.5124 -1.9921 22.7916 4.8208 -133.3372 38.4776 164.2630 153.4393 76.8543 -128.0999 1.7435 -8.5284 -19.9743 -87.1945 37.0273 -136.7669 16.1793 -6.9807 -109.4107 0.1767 0.1789 -0.1651 -2.4802 6.1620 46.0935 -127.1473 -4.2630 69.9594 5.4435 -5.7307 50.9902 -0.0739 -0.2023 -0.1371 -45.9936 7.9278 100.6808 -3.3658 34.2902 -13.9459 -0.6127 -4.1346 -1.3802 2.1637 -8.3342 6.5268 -50.7826 -16.8795 76.9429 0.7459 18.3163 -3.9143 1.8617 9.2952 -1.1382 1.2331 -4.7167 -5.3913 
0.0000 93.1000 0.0000 66.2550 -44.1058 -17.8644 -71.0010 -0.0139 88.0037 83.8855 74.0471 -5.1612 -2.1901 23.0245 4.8151 -133.2631 38.5621 164.3167 152.3725 77.3129 -128.2964 1.3356 -8.9471 -20.5673 -86.8004 37.0874 -136.7023 16.3930 -6.7255 -108.9469 0.2617 -0.1916 0.0018 -2.6630 6.0183 45.1293 -127.8155 -4.9668 68.9756 6.4004 -6.1066 52.6718 0.1453 0.2131 0.1321 -47.0602 6.6554 100.8658 -2.7597 35.1177 -13.0289 0.2901 -5.9676 -1.2503 1.7745 -7.2792 6.8634 -51.8616 -17.3149 77.1044 0.9061 18.1032 -3.6454 1.9087 8.9824 -1.5048 1.9439 -4.2446 -10.2064 
0.0000 93.1000 0.0000 66.1124 -44.5224 -17.8385 -71.0007 0.0055 88.0044 82.9117 74.2588 -4.0045 -2.0187 23.2026 4.9674 -133.1855 38.7787 165.0920 152.4887 77.9004 -128.0161 1.4670 -9.2122 -21.0712 -86.2674 37.4913 -136.7045 16.8177 -6.1725 -108.0063 0.1636 -0.1909 0.0366 -2.5669 5.8473 45.0916 -128.0724 -5.2248 67.9990 7.1703 -6.4553 53.8080 0.0784 0.2631 0.2423 -47.3596 5.0232 99.1718 -2.7915 36.4564 -10.6625 1.5522 -8.2151 -1.6822 1.8770 -7.2413 6.3471 -52.7780 -17.4366 76.9734 0.9314 18.0713 -7.2503 0.7466 8.4610 -1.2687 1.4510 -5.4191 -5.7203 
0.0000 93.1000 0.0000 66.2155 -44.5333 -16.8394 -71.0010 0.3633 88.0058 81.8114 74.8043 -1.8486 -1.8563 23.3731 5.1163 -133.2399 39.1173 165.3343 152.9473 77.8851 -128.0638 1.5199 -9.0265 -21.2801 -85.3478 37.2118 -136.8456 16.9242 -5.9285 -107.1826 -0.0911 0.1463 0.0327 -2.6104 6.0620 44.6540 -127.9868 -5.1953 67.7531 7.2589 -6.0081 54.7872 -0.2380 -0.0280 -0.0214 -46.8248 4.0432 98.1535 -2.7502 38.1479 -8.6276 2.4132 -9.5381 -1.9684 1.9946 -6.8056 5.4186 -53.7948 -18.1287 76.0433 0.8775 18.3496 -9.8852 -2.0515 8.6566 -0.5028 0.9915 -7.5190 -2.2948 
0.0000 93.1000 0.0000 66.2213 -44.9723 -17.9060 -71.0004 0.5133 88.0042 79.9020 75.1396 0.7770 -1.2390 23.7813 4.3116 -133.1276 39.1729 165.4350 153.8843 77.7473 -129.0160 1.4070 -8.9429 -21.2863 -85.0903 36.9339 -136.8956 16.9664 -6.3784 -107.1622 -0.1077 0.3137 0.0458 -2.7639 6.2156 44.8367 -128.0317 -5.1804 67.0457 7.2542 -6.0206 54.8879 -0.3225 -0.2220 -0.0541 -47.1080 3.0831 97.7378 -3.7020 38.7956 -8.5762 2.8506 -10.5040 -2.1339 1.7201 -6.4244 5.9168 -53.1560 -18.9959 75.9590 1.1027 19.1785 -11.9226 -3.7066 8.8282 0.0190 0.0383 -8.9024 3.5613 
